<svg xmlns="http://www.w3.org/2000/svg" viewBox="0 0 160 160"><defs><radialGradient id="b" cx="35%" cy="25%"><stop stop-color="#ff6b84"/><stop offset=".55" stop-color="#cf1738"/><stop offset="1" stop-color="#5d0616"/></radialGradient></defs><g fill="none" stroke="#181d27" stroke-width="10" stroke-linecap="round"><path d="M57 62 29 39 13 42M54 76 23 67 8 76M54 91 24 98 10 114M60 105 36 126 32 146"/><path d="M103 62 131 39 147 42M106 76 137 67 152 76M106 91 136 98 150 114M100 105 124 126 128 146"/></g><ellipse cx="80" cy="92" rx="34" ry="42" fill="url(#b)" stroke="#25101a" stroke-width="5"/><circle cx="80" cy="53" r="24" fill="url(#b)" stroke="#25101a" stroke-width="5"/><path d="M66 48 75 58 65 66M94 48 85 58 95 66" fill="white" stroke="white" stroke-width="4" stroke-linejoin="round"/><path d="M80 69v61M58 79l44 29M102 79l-44 29M48 94h64" stroke="#4a0714" stroke-width="3" opacity=".85"/></svg>